# xmcd
#
# Track frame offsets:
# 151
# 13154
# 31415
# 46970
# 62225
# 83330
# 94381
# 107686
# 127067
# 147268
# 167775
# 179880
#
# Disc length: 2692 seconds
#
#
# Revision: 0
# Processed by: cddbd v1.5.2PL0 Copyright (c) Steve Scherf et al.
# Submitted via: FreeRIP 2.95 
#
DISCID=a90a820c
DTITLE=Ernie Ashworth and Friends - Sing Out For The Children's Rights Council
DYEAR=2001
DGENRE=Country
TTITLE0=Talk Back Trembling Lips
TTITLE1=Jessie Told Becky Goodbye
TTITLE2=Cradle To The Grave
TTITLE3=I Picked A Rose For Mama
TTITLE4=Hear The Cries Of The Children
TTITLE5=It's So Easy To Keep On Loving You
TTITLE6=Because Of You
TTITLE7=Take Your Time
TTITLE8=Perfect World
TTITLE9=If Love Is All We Got
TTITLE10=I Want To Be A Cowboy's Sweetheart
TTITLE11=Jesus Always Hears A Hearts Cry
EXTD=
EXTT0=
EXTT1=
EXTT2=
EXTT3=
EXTT4=
EXTT5=
EXTT6=
EXTT7=
EXTT8=
EXTT9=
EXTT10=
EXTT11=
PLAYORDER=
